<svg width="100" height="100" viewBox="0 0 100 100" fill="none" xmlns="http://www.w3.org/2000/svg">
<path d="M50 0L50.0097 49.9508L69.1343 3.80601L50.0278 49.9585L85.3552 14.6447L50.0415 49.9722L96.194 30.8657L50.0492 49.9903L100 50L50.0492 50.0097L96.194 69.1343L50.0415 50.0278L85.3552 85.3552L50.0278 50.0415L69.1343 96.194L50.0097 50.0492L50 100L49.9903 50.0492L30.8657 96.194L49.9722 50.0415L14.6447 85.3552L49.9585 50.0278L3.80601 69.1343L49.9508 50.0097L0 50L49.9508 49.9903L3.80601 30.8657L49.9585 49.9722L14.6447 14.6447L49.9722 49.9585L30.8657 3.80601L49.9903 49.9508L50 0Z" stroke="black" stroke-width="2.47333"/>
</svg>
